/vscmnt/brussel_pixiu_data/_data_brussel/112/vsc11236/PredSimResults/SUBJ07mtu3D/worker8.mot
version=1
nRows=4
nColumns=50
inDegrees=yes
endheader
                time	         pelvis_tilt	         pelvis_list	     pelvis_rotation	           pelvis_tx	           pelvis_ty	           pelvis_tz	       hip_flexion_r	     hip_adduction_r	      hip_rotation_r	        knee_angle_r	       ankle_angle_r	         mtp_angle_r	       hip_flexion_l	     hip_adduction_l	      hip_rotation_l	        knee_angle_l	       ankle_angle_l	         mtp_angle_l	    lumbar_extension	      lumbar_bending	     lumbar_rotation	 ercspn_r/activation	 intobl_r/activation	 extobl_r/activation	    abd_r/activation	    add_r/activation	hamstrings_r/activation	bifemsh_r/activation	glut_max_r/activation	iliopsoas_r/activation	rect_fem_r/activation	  vasti_r/activation	gastroc_r/activation	 soleus_r/activation	tib_ant_r/activation	 ercspn_l/activation	 intobl_l/activation	 extobl_l/activation	    abd_l/activation	    add_l/activation	hamstrings_l/activation	bifemsh_l/activation	glut_max_l/activation	iliopsoas_l/activation	rect_fem_l/activation	  vasti_l/activation	gastroc_l/activation	 soleus_l/activation	tib_ant_l/activation	
          0.00000000	         -3.35745815	         -0.33314731	          8.31788184	          0.00000000	          0.85096519	         -0.01271469	         29.05852757	         -2.06881061	         -3.90210471	         -6.55281319	          3.91512503	          0.26616350	        -15.18926038	         -0.43713447	          3.38546121	         -9.11200182	          7.93037208	         27.94119936	        -11.23738261	         -1.33817245	         -1.41885519	          0.12122053	          0.13255067	          0.01000043	          0.01311689	          0.13671593	          0.07560301	          0.11882759	          0.07908138	          0.04199984	          0.01184722	          0.01000011	          0.01000022	          0.01000008	          0.36712851	          0.11797722	          0.01000010	          0.01000009	          0.03019843	          0.01666187	          0.01749538	          0.14029720	          0.01663489	          0.16396070	          0.01184897	          0.01016454	          0.15231426	          0.27587215	          0.01701338	
          0.01109010	         -3.36049555	         -0.28950954	          8.32001099	          0.01587165	          0.84938624	         -0.01233711	         28.86568388	         -1.86341878	         -3.61463955	         -8.08440010	          3.59881483	          0.24937428	        -15.67218837	         -0.51415432	          3.04416562	        -10.14114540	          6.98954185	         29.47288709	        -11.11078698	         -0.95379337	         -1.64921653	          0.10231017	          0.11986829	          0.01000018	          0.01107106	          0.11538834	          0.07023864	          0.11863268	          0.12795414	          0.03544786	          0.01000041	          0.01000015	          0.01486121	          0.01184852	          0.40134775	          0.13112850	          0.01000007	          0.01000080	          0.02548747	          0.03083276	          0.01477811	          0.11841092	          0.01403989	          0.13838357	          0.01000087	          0.01000016	          0.12855317	          0.25767106	          0.01435928	
          0.02218019	         -3.35725713	         -0.24045894	          8.27261369	          0.03188553	          0.84800750	         -0.01187768	         28.58182531	         -1.71070420	         -3.34277547	         -9.49536258	          3.18563808	          0.24525543	        -16.00323078	         -0.57161578	          2.66281867	        -11.46397541	          5.95017045	         30.93229278	        -10.98117601	         -0.57373558	         -1.87024403	          0.13555073	          0.10116883	          0.01000015	          0.09984755	          0.13529719	          0.06379928	          0.10425582	          0.12401236	          0.02991799	          0.01000016	          0.01000003	          0.01254288	          0.01000017	          0.46292565	          0.14699728	          0.01000004	          0.01000014	          0.02151141	          0.02602315	          0.01250015	          0.09993889	          0.01184974	          0.11679644	          0.01000170	          0.01000044	          0.10849881	          0.23593893	          0.01211923	
          0.03327029	         -3.34932064	         -0.17158685	          8.18040298	          0.04785150	          0.84699940	         -0.01132784	         28.29063503	         -1.57747329	         -3.12226528	        -10.87446986	          2.72202983	          0.22629020	        -16.10530284	         -0.59523305	          2.25595138	        -13.18344518	          4.78427459	         32.26114448	        -10.86880128	         -0.21431649	         -2.08102939	          0.14520543	          0.08538646	          0.01000013	          0.14777978	          0.16252713	          0.05385316	          0.08799205	          0.14797278	          0.02525078	          0.01000029	          0.01000013	          0.01058627	          0.01000009	          0.49081927	          0.18276812	          0.01000005	          0.01000016	          0.01815563	          0.03147917	          0.01192334	          0.08434850	          0.01000129	          0.09857666	          0.01000131	          0.01000033	          0.09157294	          0.20537391	          0.01022864	
